<?xml version="1.0" encoding="UTF-8"?>
<svg id="Camada_1" xmlns="http://www.w3.org/2000/svg" version="1.1" viewBox="0 0 500 500">
  <!-- Generator: Adobe Illustrator 29.3.1, SVG Export Plug-In . SVG Version: 2.1.0 Build 151)  -->
  <defs>
    <style>
      .st0 {
        fill: #edeeee;
      }

      .st1 {
        fill: #0253b3;
      }

      .st2 {
        fill: #0152b3;
      }

      .st3 {
        fill: #6da544;
      }

      .st4 {
        fill: #fdd944;
      }
    </style>
  </defs>
  <path class="st3" d="M265.1,58.3l32,5.7c150.8,39,196.2,232.3,74.9,333.7-107.5,89.9-274.2,34.2-307.7-100.8-2.6-10.3-3.7-20.9-5.7-31.3.6-10.2-.8-21.3,0-31.4,7.2-91.8,84.7-169.1,176.5-175.9h29.9,0ZM92.3,250.7l158.2,115.3,157.5-116.4-158.2-115.7-157.5,116.8h0Z"/>
  <path class="st4" d="M92.3,250.7l157.5-116.8,158.2,115.7-157.5,116.4-158.1-115.3h0ZM189.6,223c-4.2,9.7-6.1,16.8-6,27.7.6,61.9,78.6,89.5,118.2,41.5,1.5-1.8,1.9-4.4,2.3-4.9,6.1-8.2,10.1-14.5,12-25.5,13.2-77.4-95.1-110.6-126.4-38.9h0Z"/>
  <path class="st2" d="M304,287.4c-.4.5-.8,3-2.3,4.9-39.6,48-117.6,20.4-118.2-41.5,43.7-13.1,92,1.1,120.4,36.7h0Z"/>
  <path class="st1" d="M316,262c-5.8-3.7-10.4-8.9-15.8-13-31.8-24.2-71.3-32.7-110.6-25.9,31.4-71.6,139.6-38.4,126.4,38.9h0Z"/>
  <path class="st0" d="M316,262c-1.9,11-5.8,17.2-12,25.5-28.5-35.5-76.8-49.8-120.4-36.7-.1-10.9,1.8-18,6-27.7,39.3-6.8,78.9,1.7,110.7,25.9,5.4,4.1,10,9.4,15.8,13h0Z"/>
</svg>