<?xml version="1.0" encoding="UTF-8"?>
<svg id="Camada_1" data-name="Camada 1" xmlns="http://www.w3.org/2000/svg" viewBox="0 0 500 500">
  <defs>
    <style>
      .cls-1 {
        fill: #ebedee;
      }

      .cls-2 {
        fill: #d8032a;
      }

      .cls-3 {
        fill: #e6e9ed;
      }

      .cls-4 {
        fill: #e9ebee;
      }

      .cls-5 {
        fill: #0153b4;
      }

      .cls-6 {
        fill: #eaebee;
      }

      .cls-7 {
        fill: #efeeee;
      }

      .cls-8 {
        fill: #d70228;
      }

      .cls-9 {
        fill: #eaecee;
      }

      .cls-10 {
        fill: #efefef;
      }

      .cls-11 {
        fill: #d70128;
      }

      .cls-12 {
        fill: #ecedee;
      }

      .cls-13 {
        fill: #ebecee;
      }
    </style>
  </defs>
  <g>
    <path class="cls-10" d="M250.37,249.89h191.63v20.96c-2.41-.42-1.28,1.22-1.46,2.62-1.17,9.15-2.91,17.69-5.27,26.57H65.49c-3.13-11.74-5.46-23.4-5.98-35.59-.06-1.44.77-3-1.5-2.58v-11.23l.75-.75c63.86,0,127.76,0,191.63,0Z"/>
    <path class="cls-11" d="M435.26,300.04c-4.85,18.23-11.77,34.19-21.71,50.15H87.19c-9.94-16.01-16.84-31.88-21.71-50.15h369.78Z"/>
    <g>
      <path class="cls-10" d="M413.56,350.2c-12.3,19.74-26.1,34.91-44.16,49.4h-238.04c-18.17-14.67-31.79-29.48-44.16-49.4h326.36Z"/>
      <path class="cls-2" d="M369.39,399.6c-69.83,56.03-168.24,56.33-238.04,0h238.04Z"/>
    </g>
  </g>
  <g>
    <path class="cls-11" d="M435.26,199.74c3,11.15,5.3,22.4,6.06,33.98l.68,1.2v14.97h-191.63v-50.15h184.89Z"/>
    <path class="cls-10" d="M271.33,58.27c-.42,2.42,1.22,1.28,2.62,1.46,33.68,4.37,65.24,16.72,92.14,37.43.89.68,2.17.67,1.8,2.28h-117.52v-41.17h20.96Z"/>
    <path class="cls-7" d="M413.56,149.59c9.62,15.72,16.91,32.32,21.71,50.15h-184.89v-50.15h163.18Z"/>
    <path class="cls-8" d="M367.89,99.44c1.39.05,2.29.76,3.37,1.49,14.58,9.98,33.01,33.5,42.29,48.66h-163.18v-50.15h117.52Z"/>
    <path class="cls-12" d="M70.73,184.02l5.24,15.72h19.46l-14.89,11.73,5.16,18.2-15.47-10.36-9.97,6.62c1.79-14.71,5.45-28.08,10.48-41.92Z"/>
    <g>
      <path class="cls-5" d="M250.37,58.27v191.63c-63.86,0-127.76,0-191.63,0-.18-8,.53-16.02,1.5-23.95l9.97-6.62,15.47,10.36-5.16-18.2,14.89-11.73h-19.46l-5.24-15.72c1.93-5.3,4.18-10.26,6.74-15.72l8.23,5.99c.7-.89-3.58-11.26-3.74-13.47-.43-6.27,7.67-13.23,12.72-16.1-.55-1.03-4.56.61-3.73-1.48.92-2.33,8.4-11.61,10.49-14.21,4.85-6.03,11.16-13.11,16.8-18.38,2.38-2.22,5.76-5.19,8.63-6.72l-4.12,14.96,15.71-11.22,16.1,10.49-5.14-18.18,14.87-11.75c-5.05-.47-10.92.96-15.72-.76,17.93-11.25,37.74-19.37,58.38-24.34l27.7-4.86h15.72ZM213.7,88.21l-6.36-18.72-5.61,18.72h-20.21l15.78,11.72-5.29,18.22,15.46-10.35,15.97,11.1-5.14-18.96,14.88-11.73h-19.46ZM144.83,144.35c-1.84-5.27-2.91-11.85-5.21-16.87-.34-.74-.46-1.76-1.52-1.84l-6.37,18.71h-18.34l14.87,11.74-5.13,18.2,15.33-10.45,16.09,10.45-5.12-18.17,14.86-11.77h-19.46ZM213.7,144.35c-2.11-5.15-3.12-11.92-5.19-16.89-.32-.76-.54-1.74-1.53-1.82l-6.37,18.71h-18.34l14.84,11.7-5.47,18.25,15.71-10.46,16.09,10.45-5.27-18.93,15.01-11.01h-19.46ZM164.29,199.74h-19.09l-6.74-18.72-5.61,18.72h-20.21l15.78,11.71-5.68,18.96,15.86-11.11,15.21,10.38-4.39-18.21,14.88-11.73ZM213.7,199.74l-6.36-18.72-5.61,18.72h-20.21l15.78,11.72c.12,1.55-6.81,18.28-4.91,18.23l15.09-10.38,15.21,10.38c.92-4.49-5.6-14.63-4.39-18.21.78-2.29,13.44-8.35,14.88-11.73h-19.46Z"/>
      <path class="cls-4" d="M213.7,199.74h19.46c-1.44,3.38-14.1,9.45-14.88,11.73-1.22,3.57,5.31,13.72,4.39,18.21l-15.21-10.38-15.09,10.38c-1.9.05,5.03-16.68,4.91-18.23l-15.78-11.72h20.21l5.61-18.72,6.36,18.72Z"/>
      <polygon class="cls-9" points="213.7 88.21 233.16 88.21 218.28 99.94 223.42 118.9 207.45 107.8 191.99 118.14 197.28 99.92 181.51 88.21 201.72 88.21 207.33 69.49 213.7 88.21"/>
      <path class="cls-1" d="M213.7,144.35h19.46l-15.01,11.01,5.27,18.93-16.09-10.45-15.71,10.46,5.47-18.25-14.84-11.7h18.34l6.37-18.71c1,.08,1.22,1.07,1.53,1.82,2.08,4.97,3.08,11.74,5.19,16.89Z"/>
      <path class="cls-13" d="M144.83,144.35h19.46l-14.86,11.77,5.12,18.17-16.09-10.45-15.33,10.45,5.13-18.2-14.87-11.74h18.34l6.37-18.71c1.06.09,1.18,1.1,1.52,1.84,2.3,5.02,3.37,11.6,5.21,16.87Z"/>
      <path class="cls-3" d="M81.95,160.82c.15,2.22,4.44,12.59,3.74,13.47l-8.23-5.99c.98-2.09,1.06-7.2,4.49-7.49Z"/>
      <path class="cls-13" d="M148.57,87.46c4.8,1.72,10.67.28,15.72.76l-14.87,11.75,5.14,18.18-16.1-10.49-15.71,11.22,4.12-14.96c1.28-2.94,17.99-14.13,21.71-16.47Z"/>
      <polygon class="cls-6" points="164.29 199.74 149.42 211.47 153.81 229.68 138.6 219.31 122.74 230.41 128.42 211.45 112.64 199.74 132.85 199.74 138.47 181.02 145.2 199.74 164.29 199.74"/>
    </g>
  </g>
</svg>